<svg width="62" height="82" viewBox="0 0 62 82" fill="none" xmlns="http://www.w3.org/2000/svg">
<path d="M34.0056 42.7324C32.6708 41.9629 32.6708 40.0366 34.0056 39.267L51.2511 29.3252C52.5845 28.5566 54.25 29.5189 54.25 31.0579L54.25 50.9415C54.25 52.4806 52.5845 53.4429 51.2511 52.6742L34.0056 42.7324Z" fill="#532D0D"/>
<path d="M45.7746 0H53.2117C53.76 0 54.206 0.441526 54.2116 0.989804L54.3771 17.2207C54.3807 17.5676 54.2042 17.8915 53.9108 18.0766L18.9239 40.1531C18.3016 40.5457 18.3022 41.4533 18.925 41.8452L53.7341 63.7457C54.025 63.9288 54.2015 64.2484 54.2015 64.5921V81C54.2015 81.5523 53.7538 82 53.2015 82H45.9559C45.4036 82 44.9559 81.5523 44.9559 81V68.9555C44.9559 68.6067 44.7741 68.283 44.4762 68.1015L1.39095 41.8494C0.753155 41.4608 0.750961 40.5356 1.3869 40.144L44.299 13.7177C44.5946 13.5357 44.7746 13.2133 44.7746 12.8662V1C44.7746 0.447715 45.2223 0 45.7746 0Z" fill="#532D0D"/>
</svg>
