<svg width="415" height="105" viewBox="0 0 415 105" fill="none" xmlns="http://www.w3.org/2000/svg">
<path fill-rule="evenodd" clip-rule="evenodd" d="M37.3864 0V21.4773L0 52.8977L37.3864 83.9205V105H377.045V84.3182L414.432 52.8977L377.045 21.0795V0H37.3864ZM50.9068 9.13574H48.9068V11.1357V24.5085L16.2282 51.3516L14.2282 52.9945L16.3225 54.5154L48.9068 78.1778V92.2721V94.2721H50.9068H364.714H366.714V92.2721V78.1256L396.581 54.4648L398.441 52.9913L396.673 51.4076L366.714 24.5606V11.1357V9.13574H364.714H50.9068ZM52.9068 25.4539V13.1357H362.714V25.4539V26.3472L363.379 26.9434L392.237 52.803L363.472 75.5908L362.714 76.1913V77.1585V90.2721H52.9068V77.1585V76.1391L52.082 75.5402L20.7672 52.7997L52.1763 26.9994L52.9068 26.3993V25.4539Z" fill="#532D0D"/>
</svg>
