<svg width="39" height="44" viewBox="0 0 39 44" fill="none" xmlns="http://www.w3.org/2000/svg">
<path d="M12.4403 13.4989C8.85525 14.4947 1.6852 20.191 1.6852 35.0092C1.16813 36.2374 0.444234 38.893 1.6852 39.6897C3.23642 40.6855 7.88997 41.4822 8.71728 41.7809C9.5446 42.0797 13.4743 43.1751 18.9553 42.976C24.4362 42.7768 30.6411 42.2789 31.7786 41.7809C32.9162 41.283 34.5708 41.1834 36.9494 39.6897C38.8522 38.4947 37.7422 36.5362 36.9494 35.7063C36.3289 28.3038 33.0817 13.4989 25.0567 13.4989M25.0567 13.4989C24.3328 13.4579 25.0567 11.0092 26.8148 9.81422C28.2212 8.85821 28.0213 4.83498 27.7455 2.94287C26.8492 2.74372 24.6431 2.3454 22.9884 2.3454C20.9202 2.3454 19.886 1.34955 18.9553 1.0508C18.0246 0.752043 16.9904 1.84748 15.3358 2.3454C14.0121 2.74374 11.8197 2.51137 10.889 2.3454C8.32431 6.32879 11.0613 11.5072 12.7504 13.5985C14.3036 14.0164 15.8031 14.2465 17.1972 14.3468M25.0567 13.4989C23.9443 13.919 21.5647 14.4534 18.5416 14.4057M14.1982 28.8349C15.6805 28.3702 18.4382 26.6839 17.6109 23.6565C16.5768 19.8723 15.4392 15.1947 17.1972 14.3468M17.1972 14.3468C17.6575 14.3799 18.1062 14.3988 18.5416 14.4057M24.5397 25.7478C26.539 25.283 29.4415 23.537 25.0567 20.2706C19.5758 16.1876 20.5065 18.0014 18.5416 14.4057" stroke="black" stroke-width="2"/>
</svg>
