<svg width="1153" height="135" viewBox="0 0 1153 135" fill="none" xmlns="http://www.w3.org/2000/svg">
<path d="M574.649 52.2869V0.523438C564.296 25.6046 558.688 30.4815 552.648 31.1782L574.649 52.2869Z" fill="#532D0D"/>
<path d="M574.648 52.2869V0.523438C585.001 25.6046 590.609 30.4815 596.648 31.1782L574.648 52.2869Z" fill="#532D0D"/>
<path d="M557.818 121.872L574.641 134.772V70.5172L551.347 49.293C549.277 60.2796 535.818 66.7718 529.347 68.6445H548.759C544.618 77.6336 524.602 74.8863 515.112 72.3891C480.947 63.4 452.562 75.3028 442.641 82.3779C460.758 79.8809 476.288 69.8931 512.523 86.1234C541.512 99.1076 559.975 91.5335 565.583 86.1234L557.818 110.406V121.872Z" fill="#532D0D"/>
<path d="M591.463 121.872L574.64 134.772V70.5172L597.934 49.293C600.005 60.2796 613.464 66.7718 619.934 68.6445H600.522C604.663 77.6336 624.679 74.8863 634.17 72.3891C668.334 63.4 696.719 75.3028 706.641 82.3779C688.523 79.8809 672.993 69.8931 636.758 86.1234C607.769 99.1076 589.307 91.5335 583.699 86.1234L591.463 110.406V121.872Z" fill="#532D0D"/>
<path d="M424.244 94.9895C439.774 100.006 468.676 96.6151 481.186 94.2928C475.146 96.1503 460.221 100.283 448.832 101.956C437.444 103.628 427.695 102.188 424.244 101.259L398.362 93.5951C385.938 89.6936 349.185 91.505 350.479 91.505H312.949L345.302 81.7522C385.42 75.4819 404.832 88.7192 424.244 94.9895Z" fill="#532D0D"/>
<path d="M724.764 94.9895C709.234 100.006 680.332 96.6151 667.822 94.2928C673.861 96.1503 688.787 100.283 700.175 101.956C711.564 103.628 721.313 102.188 724.764 101.259L750.646 93.5951C763.07 89.6936 799.823 91.505 798.529 91.505H836.059L803.705 81.7522C763.588 75.4819 744.176 88.7192 724.764 94.9895Z" fill="#532D0D"/>
<path d="M1056.52 110.406V121.873H104.221V110.406H1056.52Z" fill="#532D0D"/>
<path d="M44.4544 134.773C37.8076 125.71 15.1386 116.139 0.515625 116.139C15.4044 116.139 37.8076 108.002 44.4544 98.9395C51.1012 108.002 82.3761 110.406 106.934 110.406V121.873C83.0058 121.873 51.1012 125.71 44.4544 134.773Z" fill="#532D0D"/>
<path d="M1113.82 130.474C1124.74 123.307 1130.19 121.874 1152.02 117.574C1132.92 111.84 1130.19 110.407 1113.82 103.24C1097.45 106.107 1076.76 109.014 1053.47 110.407V122.068C1076.76 122.068 1107.35 125.597 1113.82 130.474Z" fill="#532D0D"/>
</svg>
