<svg width="512" height="512" viewBox="0 0 512 512" fill="none" xmlns="http://www.w3.org/2000/svg">
<path d="M249.601 25.0235C251.546 23.9 253.754 23.3086 256.001 23.3086C258.247 23.3086 260.455 23.9 262.401 25.0235L452.822 134.975C454.769 136.1 456.386 137.717 457.509 139.664C458.633 141.612 459.223 143.821 459.222 146.069V365.951C459.223 368.2 458.633 370.409 457.509 372.356C456.386 374.304 454.769 375.921 452.822 377.045L262.401 486.954C260.455 488.078 258.247 488.669 256.001 488.669C253.754 488.669 251.546 488.078 249.601 486.954L59.1793 377.002C57.2322 375.878 55.6156 374.261 54.4921 372.313C53.3686 370.366 52.7779 368.157 52.7793 365.909V146.069C52.7779 143.821 53.3686 141.612 54.4921 139.664C55.6156 137.717 57.2322 136.1 59.1793 134.975L249.601 25.0448V25.0235Z" stroke="black" stroke-width="1.5" stroke-linecap="round" stroke-linejoin="round"/>
<path d="M362.667 320H149.334L256.001 149.333L362.667 320Z" stroke="black" stroke-width="1.5" stroke-linecap="round" stroke-linejoin="round"/>
<path d="M53.334 138.666L256.001 149.333M53.334 138.666L149.334 320M458.667 138.666L362.667 320M458.667 138.666L256.001 149.333V21.333M458.667 373.333L362.667 320M53.334 373.333L149.334 320M149.334 320L256.001 490.666L362.667 320" stroke="black" stroke-width="1.5" stroke-linejoin="round"/>
</svg>
