<svg width="1728" height="1718" viewBox="0 0 1728 1718" fill="none" xmlns="http://www.w3.org/2000/svg">
<path d="M1370.49 91.063C1421.62 77.8889 1426.94 75.0252 1465.2 73.9066C1467.68 74.0672 1470.98 74.5688 1471.02 77.4545C1466.82 77.2866 1448.02 80.3076 1444.57 81.0369C1430.09 115.007 1430.56 111.041 1430.81 116.062C1431.2 126.126 1431.39 136.226 1432.07 146.241C1443.18 186.737 1442.42 181.525 1446.43 186.628C1472.19 218.56 1464.54 211.829 1504.27 242.589C1506.59 244.01 1546.16 267.951 1558.02 272.146C1579.37 278.757 1572.23 277.03 1580.7 282.868C1570.22 280.754 1560.27 277.268 1549.88 274.932C1527.68 316.572 1514.46 332.638 1506.72 399.602C1506.73 400.907 1507.14 437.818 1508.31 440.507C1526.12 484.905 1522.98 477.8 1527.18 483.474C1564.12 532.386 1561.53 529.368 1563.45 530.636C1576.66 539.934 1572.86 537.085 1577.06 542.988C1578.28 544.942 1579.81 546.721 1580.82 548.805C1581.12 550.989 1580.62 553.269 1580.46 555.495C1572.6 543.1 1561.98 536.917 1560.36 535.677C1552.42 537.815 1489.47 555.35 1485.05 557.227C1415.27 593.618 1420.01 591.042 1418.04 592.596C1367.99 632.588 1369.66 630.59 1367.68 633.288C1329.39 684.407 1333.62 678.227 1331.83 682.997C1306.34 749.022 1313.6 723.739 1294.98 803.395C1310.21 820.249 1307.92 818.48 1312.66 825.538C1304.18 818.81 1296.37 811.391 1288.25 804.3C1117.3 800.283 1078.26 818.574 1049.29 826.917C1051.01 828.139 1052.71 829.481 1054.94 829.897C1055.33 829.712 1056.09 829.335 1056.48 829.142C1056.9 829.256 1057.76 829.483 1058.19 829.597C1058.25 836.554 1045.34 836.756 1038.75 833.175C1034.87 835.455 1030.67 837.116 1026.27 837.817C1030.22 839.663 1034.13 841.587 1038.08 843.439C1038.91 841.749 1039.8 840.08 1040.87 838.488C1042.39 840.891 1043.44 843.524 1044.34 846.22C1048.95 849.123 1064.12 854.377 1073.18 858.611C1076.49 860.304 1080.65 859.359 1084.34 859.917C1090.34 860.758 1096.33 861.669 1102.24 862.838C1103.44 861.404 1104.66 859.983 1105.95 858.611C1106.79 860.419 1107.6 862.247 1108.45 864.067C1138.06 869.742 1134.44 866.294 1147.87 874.213C1148.21 872.163 1149.22 870.245 1150.27 868.385C1156.72 878.166 1149.07 878.065 1173.92 890.042C1177.98 891.921 1175.31 893.324 1183.24 895.354C1185.13 892.21 1186.79 888.877 1189.6 886.276C1190.51 889.754 1190.36 893.442 1190.34 897.081C1196.31 900.031 1202.43 902.769 1208.23 905.993C1210.93 902.659 1212.71 898.608 1216.43 896.059C1217.66 900.732 1216.8 905.732 1216.81 910.59C1223.14 914.135 1229.34 917.857 1235.69 921.372C1236.86 920.705 1238.03 920.04 1239.23 919.395C1239.03 920.695 1238.84 922.014 1238.64 923.329C1244.59 926.62 1250.34 930.192 1256.16 933.666C1256.95 933.009 1257.74 932.357 1258.57 931.727C1259.42 934.822 1256.82 935.136 1265.45 940.136C1266.69 939.372 1267.82 938.455 1269.03 937.626C1269.52 939.606 1269.88 941.619 1270.24 943.644C1277.45 948.757 1284.84 953.664 1291.86 959.001C1293.55 956.874 1295.36 954.795 1297.65 953.2C1298.06 956.637 1297.04 960.129 1296.51 963.597C1298.11 965.139 1299.74 966.67 1301.28 968.288C1327.91 967.009 1334.33 969.295 1349.51 970.97C1348.54 971.745 1347.58 972.52 1346.64 973.315C1349.12 974.598 1351.76 975.654 1354.34 976.809C1354.17 983.561 1355.31 983.205 1352.08 991.428C1347.37 991.791 1342.65 991.924 1337.96 992.838C1339.23 994.48 1341.03 995.644 1342.84 996.751C1343.76 1002.93 1342.4 1003.53 1340.53 1007.38C1348.52 1015.49 1356.17 1023.91 1364.53 1031.7C1365.51 1030.79 1366.49 1029.89 1367.54 1029.03C1367.33 1030.62 1367.06 1032.2 1366.76 1033.79C1391.99 1059.12 1378.2 1047.73 1433.64 1121.2C1434.83 1122.75 1435.5 1124.61 1436.24 1126.41C1455.5 1173.95 1453.5 1166.73 1462.92 1176.72C1498.64 1213.61 1519.38 1220.06 1660.03 1297.79C1663.39 1299.89 1664.46 1299.91 1659.22 1307.09C1655.61 1308.15 1655.67 1306.16 1617.41 1288.4C1372.37 1179.49 1472.49 1226.78 1337.38 1086.6C1336.67 1085.97 1242.3 1006.36 1211.44 993.521C1166.93 974.012 1157.55 967.434 1154.98 972.254C1153.31 975.374 1151.15 978.392 1150.51 981.81C1149.77 984.258 1149.75 987.034 1147.78 989.096C1132.06 1007.17 1132.41 1007.49 1129.37 1009.48C1126.7 1011.74 1122.95 1013.38 1121.9 1016.82C1122.74 1017.42 1161.49 1055.2 1180.27 1066.73C1181.74 1065.51 1183.24 1064.31 1184.77 1063.13C1188.47 1062.76 1192.18 1061.61 1195.88 1061.71C1197.92 1062.59 1199.69 1063.92 1201.43 1065.24C1203.28 1064.93 1213.51 1062.05 1219.46 1070.44C1216.22 1071.18 1213.18 1069.63 1209.92 1070.27C1207.77 1071.08 1205.81 1072.32 1203.71 1073.25C1202.88 1075.99 1200.77 1078.08 1198.35 1079.8C1200.72 1083.09 1204.86 1084.82 1209.12 1085.4C1231.09 1082.45 1219.94 1084.45 1247.36 1083.88C1247.5 1077.96 1242.28 1073.45 1243.28 1067.36C1245.06 1067.05 1246.84 1066.71 1248.63 1066.34C1247.19 1059.48 1242.74 1058.9 1241.47 1055.69C1248.5 1056.55 1257.38 1063.94 1259.88 1066.77C1261.87 1067.19 1263.67 1067.98 1265.51 1068.73C1267.47 1057.72 1266.97 1061.45 1263.62 1054.32C1270.56 1056.18 1274.58 1063.55 1273.07 1070.36C1278.14 1072.62 1277.12 1077.07 1278.23 1092.27C1279.24 1099.83 1273.82 1103.72 1270.15 1111.79C1268.66 1115.72 1264.16 1117.47 1261.07 1120.16C1257.83 1123.04 1253.59 1124.43 1249.5 1125.46C1245.15 1124.22 1241.19 1122.23 1237.26 1120.25C1234 1121.86 1230.95 1123.86 1227.64 1125.33C1212.18 1127.59 1212.54 1125.16 1206.63 1123.78C1202.71 1122.34 1198.02 1122.48 1194.64 1120.07C1193.69 1119.5 1178.14 1110.76 1165.33 1100.23C1156.36 1089.25 1116.4 1066.55 1111.18 1067.14C1038.46 1079.91 1013.61 1097.85 996.217 1093.28C945.44 1080.85 962.472 1064.46 961.006 1054.11C959.982 1046.34 962.672 1030.95 965.386 1026.39C975.472 1007.12 971.771 1014.74 979.625 1005.82C989.904 994.182 997.289 991.496 998.756 990.494C1013.27 978.831 998.279 985.819 1023.18 975.569C1003.69 975.819 957.113 976.659 941.214 969.342C903.736 950.873 921.973 963.373 899.307 948.486C879.386 983.315 883.697 971.683 871.732 1009.35C859.155 1103.1 866.021 1028.29 848.846 1133.71C862.247 1154.32 859.729 1149.84 862.913 1159.09C857.572 1152.1 851.319 1145.83 845.26 1139.41C844.575 1138.55 843.36 1138.46 842.315 1138.25C796.105 1129.92 801.631 1129.44 751.137 1127.34C747.581 1128.15 716.959 1136.97 713.251 1138.38C702.599 1146.14 692.238 1154.25 681.612 1162.04C679.101 1163.78 677.395 1166.25 675.504 1168.51C640.622 1210.81 651.524 1192.55 628.871 1246.39C630.792 1248.42 632.185 1250.94 634.508 1252.61C639.416 1255.1 644.187 1257.88 649.644 1259.44C647.443 1259.77 645.232 1260.3 643.048 1260.27C642.13 1260.07 631.799 1256.84 630.43 1255.27C623.154 1247.3 627.063 1249.7 620.102 1246.2C557.059 1216.21 575.718 1223.81 555.906 1220.23C523.693 1215.47 524.548 1215.31 521.76 1215.57C477.452 1218.79 479.597 1218.36 477.018 1219.08C418.135 1236.87 468.343 1213.68 326.226 1271.95C328.468 1278.31 331.955 1284.13 333.756 1290.66C328.557 1286.51 329.318 1289.9 321.109 1274.13C319.197 1274.06 318.146 1272.57 316.872 1271.55C288.677 1247.32 274.097 1233.54 249.345 1222.6C224.317 1212.37 229.028 1213.94 222.261 1213.34C190.394 1210.8 191.364 1210.64 189 1211.02C146.92 1217.44 159.552 1214.18 118.337 1232.16C118.268 1237.28 117.425 1242.47 117.924 1247.53C116.001 1247.59 114.556 1246.28 114.312 1244.57C109.422 1221.16 117.118 1207.14 120.555 1188.4C123.906 1175.42 220.484 1053.56 237.242 1034.73C239.845 1032.16 244.119 1030.86 244.96 1027.08C255.945 1019.88 252.881 1025.86 255.511 1020.4C266.326 1013.6 338.202 991.981 397.85 969.251C398.686 968.941 435.418 954.906 446.945 951.75C430.721 937.33 434.221 929.36 440.474 920.242C442.226 925.725 449.598 937.635 454.711 938.702C459.512 940.217 464.706 940.563 469.748 941.337C473.823 938.609 477.205 934.468 482.265 933.611C484.934 932.545 487.308 934.165 489.754 934.653C492.039 935.509 495.094 935.487 496.489 937.597C498.147 939.656 498.223 942.481 499.258 944.857C500.349 944.357 501.421 943.831 502.511 943.318C535.535 957.023 472.694 935.814 626.785 976.773C656.667 982.881 645.715 980.792 663.148 980.76C679.497 980.21 710.943 981.021 735.027 968.942C731.955 966.922 728.521 964.247 729.056 960.169C729.26 952.906 724.475 949.195 728.86 942.037C759.375 933.045 743.731 931.376 757.279 927.895C768.235 918.398 762.501 914.431 777.391 909.881C784.004 895.575 777.881 905.576 789.381 888.197C785.482 878.6 791.987 850.291 798.71 835.261C802.509 826.485 800.356 832.156 799.309 819.277C793.04 778.716 760.123 757.045 753.297 719.456C749.865 716.605 745.876 714.183 743.723 710.243C742.684 710.773 741.653 711.308 740.629 711.846C735.857 708.308 736.672 706.692 728.699 696.057C727.875 696.479 727.049 696.896 726.238 697.321C723.312 693.602 720.463 689.834 717.521 686.137C713.707 686.302 716.359 689.288 709.419 676.245C706.199 677.296 708.742 678.369 697.24 667.602C696.689 667.841 695.595 668.323 695.044 668.563C691.764 664.651 688.826 660.496 685.729 656.454C685.247 656.706 684.289 657.205 683.814 657.456C681.419 654.105 678.69 651.008 676.119 647.791C675.789 648.037 675.131 648.528 674.809 648.778C672.497 647.582 670.506 645.941 668.058 644.954C667.782 645.241 667.23 645.81 666.961 646.095C663.474 644.062 660.499 641.421 657.222 639.141C656.789 639.369 655.926 639.837 655.494 640.072C649.685 637.234 644.795 632.702 637.973 631.703C633.056 630.835 629.939 634.167 624.809 634.021C622.862 634.538 620.941 635.169 619.04 635.839C614.437 632.818 608.444 636.676 592.034 637.823C580.455 639.604 568.763 643.607 559.054 650.597C543.891 662.408 538.755 656.788 527.985 661.524C524.769 662.889 521.831 664.844 518.567 666.092C519.152 663.311 519.531 660.489 520.512 657.762C522.504 655.542 524.936 653.664 527.015 651.488C526.605 648.58 526.676 645.451 528.185 642.618C529.272 642.661 530.361 642.709 531.463 642.76C532.672 639.776 533.79 636.687 536.115 634.171C536.251 644.52 536.142 638.206 538.158 646.343C537.598 641.541 539.325 636.407 543.186 632.672C543.071 634.497 542.476 636.361 542.676 638.163C543.401 639.843 544.705 641.178 545.902 642.551C546.929 640.532 547.511 638.403 548.02 636.28C548.958 637.546 549.785 638.896 550.653 640.223C550.758 638.565 551.021 636.892 551.807 635.316C553.339 635.84 554.725 636.625 555.969 637.586C556.249 636.457 556.597 635.342 556.988 634.24C557.976 634.661 558.953 635.096 559.932 635.543C559.854 632.968 560.124 630.282 561.568 627.868C562.307 629.817 562.931 631.826 563.93 633.662C566.308 631.931 565.806 628.881 567.208 626.606C567.79 628.083 568.154 629.643 568.695 631.148C569.57 630.933 570.438 630.646 571.318 630.38C571.407 629.043 571.496 627.705 571.605 626.369C567.424 624.34 554.771 621.74 553.32 623.085C550.605 624.832 548.301 627.209 545.34 628.547C541.186 629.967 536.787 630.636 532.91 632.859C530.007 634.567 526.695 634.604 523.549 634.788C521.638 633.298 519.383 632.008 518.461 629.708C521 630.307 522.837 632.168 525.47 632.658C531.1 630.572 536.618 622.118 549.241 616.184C559.054 612.362 579.46 618.727 583.787 619.839C591.08 612.498 586.249 617.894 595.294 602.265C607.665 596.797 602.785 597.471 608.042 597.753C610.7 596.532 612.829 594.258 620.035 597.094C620.13 593.727 619.994 590.374 619.951 587.022C619.271 586.234 618.574 585.461 617.885 584.7C616.9 585.083 615.928 585.462 614.957 585.848C614.73 585.617 614.282 585.162 614.055 584.931C612.538 586.072 610.882 586.992 609.147 587.736C608.684 586.443 608.29 585.121 607.916 583.801C605.865 583.137 606.761 581.058 607.432 579.541C607.729 579.377 608.326 579.059 608.624 578.9C607.67 579.233 606.737 579.572 605.807 579.924C605.615 579.709 605.225 579.275 605.033 579.061C604.01 580.093 601.961 581.724 601.022 580C599.762 580.938 598.398 581.737 596.991 582.449C596.257 581.168 596.18 579.683 596.296 578.199C595.656 578.046 595.022 577.891 594.4 577.728C593.64 579.152 592.801 580.54 591.895 581.896C590.205 579.213 592.242 575.976 593.094 573.117C592.575 573.306 591.537 573.69 591.017 573.878C590.854 573.559 590.526 572.915 590.363 572.596C588.943 573.646 587.499 574.672 586.069 575.7C586.045 574.026 586.027 572.349 586.062 570.671C584.413 569.981 582.688 569.462 580.902 569.086C579.726 570.423 578.582 571.784 577.445 573.148C577.27 571.34 577.216 569.495 576.805 567.745C575.947 566.519 574.21 566.162 572.956 565.362C571.846 567.481 571.146 569.731 569.944 571.818C567.025 572.165 567.517 565.398 568.043 562.511C567.31 562.095 566.582 561.678 565.863 561.27C564.689 561.56 563.384 562.058 562.651 560.972C561.41 562.204 559.988 563.242 558.483 564.143C558.363 562.193 558.393 560.224 558.636 558.252C557.81 557.767 557.31 557.056 557.126 556.132C556.389 557.386 554.636 558.324 553.737 556.937C552.686 559.761 552.456 562.777 550.88 565.462C548.834 561.788 548.255 557.557 548.283 553.287C546.376 556.279 544.911 559.478 544.052 562.783C543.535 564.598 543.263 566.553 541.81 568.056C537.61 557.716 540.469 555.268 540.5 548.865C538.929 548.503 537.394 548.035 535.928 547.44C534.336 548.569 532.718 549.669 531.106 550.76C529.438 547.331 528.244 546.631 532.429 543.009C533.971 539.425 536.817 536.458 539.156 533.269C541.204 532.46 543.204 531.443 545.332 530.857C547.797 530.511 550.115 531.482 552.608 530.995C561.732 529.61 562.625 532.922 578.789 528.124C586.835 525.686 585.395 533.554 588.22 537.129C588.22 537.129 595.922 543.504 621.035 557.863C625.148 556.915 621.464 556.424 632.489 559.164C634.177 558.273 636.212 557.686 637.377 556.101C639.477 553.629 642.033 550.611 645.622 550.665C645.186 552.301 644.558 553.905 643.745 555.446C644.717 554.914 645.709 554.383 646.71 553.868C647.957 553.829 649.615 554.419 650.582 553.225C653.551 550.057 657.096 546.339 661.73 546.05C660.739 548.389 659.185 550.483 657.655 552.566C661.609 552.164 665.572 552.034 669.309 553.001C671.688 551.8 674.41 550.727 676.852 551.788C676.522 552.296 675.87 553.316 675.546 553.821C676.937 556.286 678.275 558.789 679.287 561.445C680.53 560.828 682.484 560.158 683.213 561.561C682.992 562.304 682.659 563.02 682.388 563.744C694.572 566.097 689.654 565.562 698.002 568.277C698.124 568.625 698.366 569.314 698.487 569.656C699.949 569.971 701.62 570.108 702.583 571.259C707.408 574.574 703.983 569.854 718.145 571.553C721.996 572.63 720.257 571.184 729.218 579.934C733.724 578.287 738.208 576.234 742.448 583.842C739.335 583.537 736.446 581.606 733.146 582.798C730.613 583.471 728.272 585.339 725.611 585.026C721.237 584.941 720.622 579.605 716.555 578.92C714.027 578.532 711.746 580.324 709.595 581.499C707.37 581.39 705.019 582.268 702.954 581.406C703.361 582.761 703.757 584.126 704.159 585.488C706.253 585.344 708.272 585.68 709.976 586.679C710.798 588 711.595 589.338 712.093 590.83C710.354 590.497 708.728 589.898 707.121 589.296C703.37 593.393 699.454 597.343 695.171 600.956C695.671 601.375 696.18 601.798 696.701 602.217C700.635 599.299 705.511 598.914 710.064 597.907C708.034 601.3 706.384 604.99 703.259 607.733C704.869 608.919 706.46 610.141 708.072 611.34C713.363 608.337 718.621 605.257 723.929 602.274C718.421 613.94 720.687 610.26 715.335 616.774C715.818 617.167 716.309 617.563 716.813 617.963C720.786 614.925 725.132 612.38 729.64 610.185C727.72 614.27 724.949 618.028 721.596 621.291C723.003 622.309 724.435 623.314 725.85 624.336C729.834 620.766 734.499 617.953 739.358 615.666C737.654 620.179 735.131 624.509 731.75 628.248C733.027 629.421 733.656 627.756 741.066 624.637C739.921 626.972 738.464 629.2 736.602 631.139C739.278 632.691 741.828 634.407 744.541 635.908C754.022 628.394 764.781 622.86 767.86 621.537C766.094 626.546 763.913 627.416 754.324 641.676C755.936 642.65 757.516 643.667 759.132 644.658C768.432 635.735 775.591 631.009 778.108 629.664C775.573 636.775 771.29 643.354 767.685 650.108C770.412 651.915 773.129 653.743 775.885 655.524C782.104 650.356 788.652 645.568 795.061 640.603C792.288 645.519 790.646 650.79 788.1 655.778C786.78 658.217 787.447 660.885 786.698 663.42C793.793 667.855 788.743 663.535 799.829 672.019C800.519 670.801 801.295 669.617 802.139 668.477C803.121 670.592 803.722 672.886 804.792 674.973C806.134 675.696 807.969 675.786 808.908 677.059C821.741 692.652 867.662 739.701 896.468 748.332C899.84 748.068 902.938 746.525 905.922 744.937C916.966 744.25 935.507 743.225 945.734 746.911C992.172 716.842 968.475 728.61 1012.04 711.731C1020.07 709.52 1028.31 708.562 1036.4 706.624C1074.54 695.712 1062.11 700.673 1090.4 683.771C1092.79 682.495 1101.92 670.789 1103.57 666.604C1114.51 633.704 1112.16 602.829 1111.11 600.179C1102.41 581.724 1094.01 563.127 1085.35 544.664C1052.06 489.68 1052.93 497.397 1038.01 485.843C1038.33 484.766 1038.69 483.696 1039.08 482.632C1035.43 482.642 1031.77 482.423 1028.51 481.095C1021.28 469.656 1021.54 469.254 1022.31 465.308C1023.95 462.875 1026.27 460.86 1028.18 458.587C1021.2 447.897 1023.3 446.913 986.794 450.214C982.089 451.118 977.394 452.147 972.737 453.319C973.529 452.817 991.143 440.009 1003.25 437.267C1022.15 432.629 1022.9 431.01 1040.48 433.426C1042.59 433.591 1050.49 439.102 1051.33 441.552C1066.2 386.558 1090.21 379.398 1123.68 269.935C1135.91 230.434 1132.85 237.087 1138.12 233.925C1137.84 231.234 1139.38 228.636 1141.36 226.573C1160.39 208.906 1350.57 94.9252 1370.49 91.063ZM688.187 587.702C688.41 589.742 688.433 591.82 688.296 593.899C691.514 591.906 694.624 589.27 698.563 589.31C696.495 579.943 689.178 587.153 688.187 587.702ZM598.126 620.817C598.932 620.74 599.751 620.66 600.578 620.59C601.052 619.17 601.644 617.776 602.422 616.451C603.785 617.522 604.944 618.795 605.95 620.18C606.169 619.834 606.598 619.137 606.81 618.792C607.152 619.031 607.837 619.508 608.172 619.748C609.029 619.543 609.894 619.348 610.77 619.174C610.973 617.729 611.344 616.292 611.842 614.89C613.056 615.645 614.216 616.474 615.367 617.323C615.489 616.958 615.732 616.228 615.853 615.863C610.166 608.911 609.224 610.636 606.62 610.708C603.112 613.577 600.304 617.021 598.126 620.817ZM572.596 626.791C573.119 627.557 573.696 628.335 574.252 629.1C574.841 628.772 575.429 628.444 576.03 628.113C574.885 627.671 573.733 627.224 572.596 626.791ZM744.938 950.8C745.769 953.531 745.715 956.9 747.8 959.03C747.373 956.138 746.814 953.072 744.938 950.8ZM1093.23 1027.09C1090.71 1028.45 1088.58 1030.38 1086.21 1031.96C1091.91 1031.12 1097.26 1028.75 1102.74 1026.91C1105.01 1026.27 1106.41 1024.26 1108.02 1022.74C1103.26 1024.86 1098.16 1025.65 1093.23 1027.09Z" fill="#DEC8B0"/>
</svg>
