<svg width="40" height="40" viewBox="0 0 40 40" fill="none" xmlns="http://www.w3.org/2000/svg">
<path d="M1 20C1 9.50659 9.50659 1 20 1C30.4934 1 39 9.50659 39 20C39 30.4934 30.4934 39 20 39C9.50659 39 1 30.4934 1 20Z" stroke="#500039" stroke-width="2"/>
<path d="M13.6953 20.3162C13.6953 17.0112 16.3745 14.332 19.6794 14.332C22.9844 14.332 25.6636 17.0112 25.6636 20.3162C25.6636 23.6211 22.9844 26.3003 19.6794 26.3003C16.3745 26.3003 13.6953 23.6211 13.6953 20.3162Z" stroke="#500039" stroke-width="2"/>
<path d="M8.61719 12.6191C8.61719 10.41 10.408 8.61914 12.6172 8.61914H27.3791C29.5882 8.61914 31.3791 10.41 31.3791 12.6191V27.381C31.3791 29.5902 29.5882 31.381 27.3791 31.381H12.6172C10.408 31.381 8.61719 29.5902 8.61719 27.381V12.6191Z" stroke="#500039" stroke-width="2"/>
<circle cx="12.3842" cy="12.3803" r="1.0873" fill="#D9D9D9" stroke="#500039"/>
</svg>
