<svg width="212" height="48" viewBox="0 0 212 48" fill="none" xmlns="http://www.w3.org/2000/svg">
<path d="M105.703 18.7269V0.669922C103.806 9.41918 102.778 11.1204 101.672 11.3635L105.703 18.7269Z" fill="#532D0D"/>
<path d="M105.703 18.7269V0.669922C107.6 9.41918 108.628 11.1204 109.734 11.3635L105.703 18.7269Z" fill="#532D0D"/>
<path d="M102.619 43L105.701 47.5V25.0854L101.433 17.6816C101.054 21.5142 98.5873 23.7789 97.4016 24.4322H100.959C100.2 27.5679 96.5322 26.6096 94.7932 25.7384C88.5328 22.6027 83.3317 26.7549 81.5137 29.2229C84.8335 28.3519 87.6792 24.8677 94.3189 30.5295C99.6307 35.0588 103.014 32.4167 104.041 30.5295L102.619 39V43Z" fill="#532D0D"/>
<path d="M108.784 43L105.701 47.5V25.0854L109.969 17.6816C110.349 21.5142 112.815 23.7789 114.001 24.4322H110.444C111.203 27.5679 114.87 26.6096 116.609 25.7384C122.87 22.6027 128.071 26.7549 129.889 29.2229C126.569 28.3519 123.723 24.8677 117.083 30.5295C111.772 35.0588 108.389 32.4167 107.361 30.5295L108.784 39V43Z" fill="#532D0D"/>
<path d="M78.1435 33.6231C80.9891 35.3729 86.2851 34.1901 88.5774 33.38C87.4708 34.028 84.7358 35.4698 82.6491 36.0531C80.5623 36.6363 78.7759 36.1341 78.1435 35.81L73.4008 33.1366C71.1243 31.7756 64.3897 32.4075 64.6269 32.4075H57.75L63.6783 29.0054C71.0295 26.8181 74.5865 31.4358 78.1435 33.6231Z" fill="#532D0D"/>
<path d="M133.21 33.6231C130.364 35.3729 125.068 34.1901 122.776 33.38C123.883 34.028 126.618 35.4698 128.704 36.0531C130.791 36.6363 132.578 36.1341 133.21 35.81L137.953 33.1366C140.229 31.7756 146.964 32.4075 146.727 32.4075H153.604L147.675 29.0054C140.324 26.8181 136.767 31.4358 133.21 33.6231Z" fill="#532D0D"/>
<path d="M194 39V43H19.5029V39H194Z" fill="#532D0D"/>
<path d="M8.55128 47.5C7.33333 44.3387 3.17949 41 0.5 41C3.22821 41 7.33333 38.1613 8.55128 35C9.76923 38.1613 15.5 39 20 39V43C15.6154 43 9.76923 44.3387 8.55128 47.5Z" fill="#532D0D"/>
<path d="M204.5 46C206.5 43.5 207.5 43 211.5 41.5C208 39.5 207.5 39 204.5 36.5C201.5 37.5 197.709 38.5139 193.441 39V43.068C197.709 43.068 203.314 44.2988 204.5 46Z" fill="#532D0D"/>
</svg>
