<svg width="688" height="82" viewBox="0 0 688 82" fill="none" xmlns="http://www.w3.org/2000/svg">
<path d="M343.404 31.6621V0.363281C337.228 15.5287 333.882 18.4775 330.279 18.8987L343.404 31.6621Z" fill="#532D0D"/>
<path d="M343.404 31.6621V0.363281C349.581 15.5287 352.926 18.4775 356.529 18.8987L343.404 31.6621Z" fill="#532D0D"/>
<path d="M333.364 73.7367L343.401 81.5367V42.6848L329.504 29.8516C328.268 36.4947 320.239 40.4201 316.379 41.5525H327.96C325.489 46.9877 313.548 45.3266 307.886 43.8166C287.503 38.3814 270.57 45.5785 264.65 49.8564C275.459 48.3466 284.724 42.3074 306.342 52.1211C323.636 59.972 334.651 55.3923 337.996 52.1211L333.364 66.8034V73.7367Z" fill="#532D0D"/>
<path d="M353.437 73.7367L343.4 81.5367V42.6848L357.297 29.8516C358.532 36.4947 366.562 40.4201 370.422 41.5525H358.841C361.312 46.9877 373.253 45.3266 378.915 43.8166C399.297 38.3814 416.231 45.5785 422.15 49.8564C411.341 48.3466 402.077 42.3074 380.459 52.1211C363.165 59.972 352.15 55.3923 348.804 52.1211L353.437 66.8034V73.7367Z" fill="#532D0D"/>
<path d="M253.675 57.4828C262.94 60.5159 280.182 58.4658 287.646 57.0616C284.043 58.1847 275.138 60.6838 268.344 61.6948C261.55 62.7059 255.734 61.8353 253.675 61.2736L238.234 56.6397C230.822 54.2807 208.895 55.3759 209.667 55.3759H187.277L206.579 49.4789C230.513 45.6876 242.094 53.6915 253.675 57.4828Z" fill="#532D0D"/>
<path d="M432.962 57.4829C423.697 60.5159 406.454 58.4658 398.991 57.0616C402.594 58.1847 411.499 60.6838 418.293 61.6948C425.087 62.7059 430.903 61.8353 432.962 61.2736L448.403 56.6397C455.815 54.2807 477.742 55.3759 476.97 55.3759H499.359L480.058 49.4789C456.124 45.6876 444.543 53.6915 432.962 57.4829Z" fill="#532D0D"/>
<path d="M630.883 66.8047V73.738H62.7525V66.8047H630.883Z" fill="#532D0D"/>
<path d="M27.0963 81.5378C23.1309 76.0582 9.60672 70.2711 0.882812 70.2711C9.76534 70.2711 23.1309 65.3507 27.0963 59.8711C31.0617 65.3507 49.72 66.8044 64.3712 66.8044V73.7378C50.0957 73.7378 31.0617 76.0582 27.0963 81.5378Z" fill="#532D0D"/>
<path d="M665.071 78.9374C671.582 74.604 674.838 73.7374 687.861 71.1374C676.466 67.6707 674.838 66.804 665.071 62.4707C655.303 64.204 642.962 65.9615 629.065 66.804V73.8552C642.962 73.8552 661.21 75.9885 665.071 78.9374Z" fill="#532D0D"/>
</svg>
