<svg width="42" height="42" viewBox="0 0 42 42" fill="none" xmlns="http://www.w3.org/2000/svg">
<path d="M28.875 36.7495C15.8484 36.7495 5.25 26.1511 5.25 13.1245C5.25493 10.8901 6.07109 8.73343 7.54675 7.05559C9.02241 5.37775 11.0571 4.29285 13.2727 4.00262C13.8374 3.94 14.4075 4.05891 14.9001 4.3421C15.3928 4.6253 15.7824 5.05806 16.0125 5.57762L19.3102 13.2722C19.4812 13.6715 19.5498 14.1073 19.5097 14.54C19.4696 14.9726 19.322 15.3884 19.0805 15.7495L16.357 19.9167C17.5903 22.4194 19.6223 24.4399 22.132 25.6589L26.25 22.919C26.6108 22.6758 27.0276 22.5286 27.461 22.4913C27.8945 22.454 28.3303 22.5278 28.7273 22.7057L36.4219 25.987C36.9414 26.2171 37.3742 26.6067 37.6574 27.0994C37.9406 27.592 38.0595 28.1621 37.9969 28.7268C37.7066 30.9424 36.6217 32.9771 34.9439 34.4527C33.2661 35.9284 31.1094 36.7446 28.875 36.7495ZM13.6008 6.61121C12.0175 6.81474 10.5627 7.58839 9.50873 8.7873C8.45477 9.98622 7.87394 11.5282 7.875 13.1245C7.87935 18.6927 10.0932 24.0316 14.0306 27.9689C17.9679 31.9063 23.3068 34.1201 28.875 34.1245C30.4713 34.1255 32.0133 33.5447 33.2122 32.4908C34.4111 31.4368 35.1848 29.982 35.3883 28.3987L27.6938 25.1175L23.5922 27.8573C23.2148 28.1068 22.7793 28.2545 22.328 28.2861C21.8767 28.3178 21.4249 28.2322 21.0164 28.0378C17.9598 26.5592 15.4874 24.0983 13.9945 21.0487C13.7977 20.6416 13.7094 20.1905 13.7381 19.7393C13.7669 19.288 13.9117 18.8518 14.1586 18.4729L16.8984 14.3057L13.6008 6.61121Z" fill="#532D0D"/>
</svg>
